<?xml version="1.0" encoding="UTF-8"?>
<!DOCTYPE svg PUBLIC "-//W3C//DTD SVG 1.1//EN" "http://www.w3.org/Graphics/SVG/1.1/DTD/svg11.dtd">
<svg xmlns="http://www.w3.org/2000/svg" version="1.1" width="132px" height="111px" style="shape-rendering:geometricPrecision; text-rendering:geometricPrecision; image-rendering:optimizeQuality; fill-rule:evenodd; clip-rule:evenodd" xmlns:xlink="http://www.w3.org/1999/xlink">
<g><path style="opacity:1" fill="#fdfdfe" d="M -0.5,-0.5 C 43.5,-0.5 87.5,-0.5 131.5,-0.5C 131.5,36.5 131.5,73.5 131.5,110.5C 87.5,110.5 43.5,110.5 -0.5,110.5C -0.5,73.5 -0.5,36.5 -0.5,-0.5 Z"/></g>
<g><path style="opacity:1" fill="#6c70f1" d="M 36.5,4.5 C 50.8923,4.06964 65.2257,4.56964 79.5,6C 80.7014,6.90252 81.5348,8.06919 82,9.5C 82.4995,15.4908 82.6662,21.4908 82.5,27.5C 81.5,27.5 80.5,27.5 79.5,27.5C 79.6661,21.8236 79.4994,16.1569 79,10.5C 78.1667,9.66667 77.3333,8.83333 76.5,8C 62.8333,7.33333 49.1667,7.33333 35.5,8C 34.6667,8.83333 33.8333,9.66667 33,10.5C 32.3333,39.5 32.3333,68.5 33,97.5C 33.4652,98.9308 34.2986,100.097 35.5,101C 48.8333,101.667 62.1667,101.667 75.5,101C 78.2224,99.7275 79.5557,97.5608 79.5,94.5C 80.5,94.5 81.5,94.5 82.5,94.5C 83.1992,99.944 80.8659,103.111 75.5,104C 62.5,104.667 49.5,104.667 36.5,104C 34.1523,103.654 32.3189,102.487 31,100.5C 29.3573,70.8947 29.024,41.2281 30,11.5C 31.0183,7.98529 33.1849,5.65196 36.5,4.5 Z"/></g>
<g><path style="opacity:1" fill="#7476f1" d="M 104.5,4.5 C 106.592,4.56138 108.092,5.56138 109,7.5C 112.801,14.1051 116.301,20.7718 119.5,27.5C 117.167,27.5 114.833,27.5 112.5,27.5C 112.826,31.8839 112.492,36.2172 111.5,40.5C 111.167,40.3333 110.833,40.1667 110.5,40C 109.529,34.9283 109.195,29.7616 109.5,24.5C 111.288,24.7852 112.955,24.4519 114.5,23.5C 111.918,18.6669 109.085,14.0002 106,9.5C 103.293,14.4155 100.459,19.2488 97.5,24C 99.1341,24.4935 100.801,24.6602 102.5,24.5C 103.808,40.2469 101.974,55.5802 97,70.5C 89.1718,85.5797 76.8385,92.2463 60,90.5C 59.5172,89.552 59.3505,88.552 59.5,87.5C 81.9495,88.5126 94.7828,77.8459 98,55.5C 99.2756,46.2124 99.7756,36.8791 99.5,27.5C 97.5,27.5 95.5,27.5 93.5,27.5C 93.3433,26.1266 93.51,24.7932 94,23.5C 98.0319,17.434 101.532,11.1007 104.5,4.5 Z"/></g>
<g><path style="opacity:1" fill="#6c70f1" d="M 46.5,11.5 C 52.8333,11.5 59.1667,11.5 65.5,11.5C 65.5,12.5 65.5,13.5 65.5,14.5C 59.1667,14.5 52.8333,14.5 46.5,14.5C 46.5,13.5 46.5,12.5 46.5,11.5 Z"/></g>
<g><path style="opacity:1" fill="#7c7ef2" d="M 60.5,27.5 C 63.1873,27.3359 65.854,27.5026 68.5,28C 69.8333,29 69.8333,30 68.5,31C 65.8333,31.6667 63.1667,31.6667 60.5,31C 59.3157,29.8545 59.3157,28.6879 60.5,27.5 Z"/></g>
<g><path style="opacity:1" fill="#7779f2" d="M 58.5,34.5 C 65.3061,33.6921 71.6395,35.0254 77.5,38.5C 78.4803,37.0186 79.647,35.6853 81,34.5C 83.0149,36.4783 82.8483,38.3116 80.5,40C 91.0904,50.8215 92.257,62.6549 84,75.5C 72.4483,86.3999 60.2816,87.2333 47.5,78C 36.5347,64.98 36.868,52.3134 48.5,40C 46.9632,38.8904 46.2965,37.3904 46.5,35.5C 48.9124,35.244 50.5791,36.244 51.5,38.5C 53.7654,36.8726 56.0987,35.5392 58.5,34.5 Z"/></g>
<g><path style="opacity:1" fill="#fafafe" d="M 58.5,38.5 C 76.7981,36.9697 85.9647,45.3031 86,63.5C 82.1657,76.165 73.6657,81.9983 60.5,81C 47.835,77.1657 42.0017,68.6657 43,55.5C 45.2832,47.0562 50.4499,41.3895 58.5,38.5 Z"/></g>
<g><path style="opacity:1" fill="#797bf2" d="M 62.5,41.5 C 63.8333,41.5 65.1667,41.5 66.5,41.5C 66.3342,46.1785 66.5008,50.8452 67,55.5C 70.7077,59.6657 69.8743,62.6657 64.5,64.5C 59.1257,62.6657 58.2923,59.6657 62,55.5C 62.4992,50.8452 62.6658,46.1785 62.5,41.5 Z"/></g>
<g><path style="opacity:1" fill="#7679f1" d="M 55.5,43.5 C 57.0481,43.8212 57.7148,44.8212 57.5,46.5C 54.7524,46.5983 54.0857,45.5983 55.5,43.5 Z"/></g>
<g><path style="opacity:1" fill="#7578f2" d="M 71.5,43.5 C 75.31,44.7542 75.31,45.7542 71.5,46.5C 71.5,45.5 71.5,44.5 71.5,43.5 Z"/></g>
<g><path style="opacity:1" fill="#7e7ff2" d="M 110.5,44.5 C 112.048,44.8212 112.715,45.8212 112.5,47.5C 109.752,47.5983 109.086,46.5983 110.5,44.5 Z"/></g>
<g><path style="opacity:1" fill="#7c7ef2" d="M 48.5,49.5 C 49.5,49.5 50.5,49.5 51.5,49.5C 51.5,50.5 51.5,51.5 51.5,52.5C 50.5,52.5 49.5,52.5 48.5,52.5C 48.5,51.5 48.5,50.5 48.5,49.5 Z"/></g>
<g><path style="opacity:1" fill="#7e80f2" d="M 77.5,49.5 C 78.5,49.5 79.5,49.5 80.5,49.5C 80.5,50.5 80.5,51.5 80.5,52.5C 79.5,52.5 78.5,52.5 77.5,52.5C 77.5,51.5 77.5,50.5 77.5,49.5 Z"/></g>
<g><path style="opacity:1" fill="#8384f3" d="M 46.5,57.5 C 49.8606,58.2032 50.1939,59.5365 47.5,61.5C 46.5713,60.3112 46.238,58.9778 46.5,57.5 Z"/></g>
<g><path style="opacity:1" fill="#d9d9fb" d="M 63.5,57.5 C 66.8606,58.2032 67.1939,59.5365 64.5,61.5C 62.3576,60.5629 62.0243,59.2296 63.5,57.5 Z"/></g>
<g><path style="opacity:1" fill="#7578f1" d="M 79.5,58.5 C 82.5476,58.494 83.0476,59.494 81,61.5C 79.9614,60.7562 79.4614,59.7562 79.5,58.5 Z"/></g>
<g><path style="opacity:1" fill="#7275f1" d="M 109.5,58.5 C 110.675,58.281 111.675,58.6143 112.5,59.5C 110.948,60.7979 109.948,60.4646 109.5,58.5 Z"/></g>
<g><path style="opacity:1" fill="#7e7ff2" d="M 110.5,64.5 C 112.048,64.8212 112.715,65.8212 112.5,67.5C 109.752,67.5983 109.086,66.5983 110.5,64.5 Z"/></g>
<g><path style="opacity:1" fill="#7f80f2" d="M 48.5,66.5 C 49.5,66.5 50.5,66.5 51.5,66.5C 51.5,67.5 51.5,68.5 51.5,69.5C 50.5,69.5 49.5,69.5 48.5,69.5C 48.5,68.5 48.5,67.5 48.5,66.5 Z"/></g>
<g><path style="opacity:1" fill="#7e80f2" d="M 77.5,66.5 C 78.5,66.5 79.5,66.5 80.5,66.5C 80.5,67.5 80.5,68.5 80.5,69.5C 79.5,69.5 78.5,69.5 77.5,69.5C 77.5,68.5 77.5,67.5 77.5,66.5 Z"/></g>
<g><path style="opacity:1" fill="#7174f1" d="M 109.5,71.5 C 110.5,71.5 111.5,71.5 112.5,71.5C 112.5,73.5 112.5,75.5 112.5,77.5C 111.5,77.5 110.5,77.5 109.5,77.5C 109.5,75.5 109.5,73.5 109.5,71.5 Z"/></g>
<g><path style="opacity:1" fill="#7a7cf2" d="M 54.5,72.5 C 55.5,72.5 56.5,72.5 57.5,72.5C 57.5,73.5 57.5,74.5 57.5,75.5C 56.5,75.5 55.5,75.5 54.5,75.5C 54.5,74.5 54.5,73.5 54.5,72.5 Z"/></g>
<g><path style="opacity:1" fill="#8182f3" d="M 71.5,72.5 C 72.5,72.5 73.5,72.5 74.5,72.5C 74.5,73.5 74.5,74.5 74.5,75.5C 73.5,75.5 72.5,75.5 71.5,75.5C 71.5,74.5 71.5,73.5 71.5,72.5 Z"/></g>
<g><path style="opacity:1" fill="#7376f1" d="M 63.5,74.5 C 65.4646,74.9483 65.7979,75.9483 64.5,77.5C 63.6143,76.675 63.281,75.675 63.5,74.5 Z"/></g>
<g><path style="opacity:1" fill="#6e71f1" d="M 109.5,81.5 C 110.5,81.5 111.5,81.5 112.5,81.5C 112.5,86.8333 112.5,92.1667 112.5,97.5C 105.833,97.5 99.1667,97.5 92.5,97.5C 92.5,96.5 92.5,95.5 92.5,94.5C 98.1667,94.5 103.833,94.5 109.5,94.5C 109.5,90.1667 109.5,85.8333 109.5,81.5 Z"/></g>
<g><path style="opacity:1" fill="#7e7ff2" d="M 52.5,94.5 C 54.8333,94.5 57.1667,94.5 59.5,94.5C 59.5,95.5 59.5,96.5 59.5,97.5C 57.1667,97.5 54.8333,97.5 52.5,97.5C 52.5,96.5 52.5,95.5 52.5,94.5 Z"/></g>
</svg>
