<?xml version="1.0" encoding="UTF-8"?>
<!DOCTYPE svg PUBLIC "-//W3C//DTD SVG 1.1//EN" "http://www.w3.org/Graphics/SVG/1.1/DTD/svg11.dtd">
<svg xmlns="http://www.w3.org/2000/svg" version="1.1" width="81px" height="83px" style="shape-rendering:geometricPrecision; text-rendering:geometricPrecision; image-rendering:optimizeQuality; fill-rule:evenodd; clip-rule:evenodd" xmlns:xlink="http://www.w3.org/1999/xlink">
<g><path style="opacity:1" fill="#6b6ff1" d="M 12.5,12.5 C 9.79669,14.11 6.79669,15.11 3.5,15.5C 2.33726,36.6627 2.17059,57.996 3,79.5C 15.4266,80.162 27.9266,80.4954 40.5,80.5C 53.0734,80.4954 65.5734,80.162 78,79.5C 78.8294,57.996 78.6627,36.6627 77.5,15.5C 74.2033,15.11 71.2033,14.11 68.5,12.5C 71.8333,12.5 75.1667,12.5 78.5,12.5C 78.7683,9.8806 78.435,7.3806 77.5,5C 70.1441,4.83128 62.8108,4.33128 55.5,3.5C 63.145,2.33521 70.8117,2.16855 78.5,3C 79.0442,3.71719 79.7109,4.21719 80.5,4.5C 80.5,29.8333 80.5,55.1667 80.5,80.5C 79.5,80.8333 78.8333,81.5 78.5,82.5C 53.1667,82.5 27.8333,82.5 2.5,82.5C 2.21719,81.7109 1.71719,81.0442 1,80.5C 0.333333,55.1667 0.333333,29.8333 1,4.5C 1.5,4 2,3.5 2.5,3C 10.1883,2.16855 17.855,2.33521 25.5,3.5C 18.1892,4.33128 10.8559,4.83128 3.5,5C 2.565,7.3806 2.23166,9.8806 2.5,12.5C 5.83333,12.5 9.16667,12.5 12.5,12.5 Z"/></g>
<g><path style="opacity:1" fill="#e8e5fc" d="M -0.5,-0.5 C 26.5,-0.5 53.5,-0.5 80.5,-0.5C 80.5,1.16667 80.5,2.83333 80.5,4.5C 79.7109,4.21719 79.0442,3.71719 78.5,3C 70.8117,2.16855 63.145,2.33521 55.5,3.5C 62.8108,4.33128 70.1441,4.83128 77.5,5C 78.435,7.3806 78.7683,9.8806 78.5,12.5C 75.1667,12.5 71.8333,12.5 68.5,12.5C 67.596,13.209 67.2627,14.209 67.5,15.5C 70.8333,15.5 74.1667,15.5 77.5,15.5C 78.6627,36.6627 78.8294,57.996 78,79.5C 65.5734,80.162 53.0734,80.4954 40.5,80.5C 27.9266,80.4954 15.4266,80.162 3,79.5C 2.17059,57.996 2.33726,36.6627 3.5,15.5C 6.83333,15.5 10.1667,15.5 13.5,15.5C 13.7373,14.209 13.404,13.209 12.5,12.5C 9.16667,12.5 5.83333,12.5 2.5,12.5C 2.23166,9.8806 2.565,7.3806 3.5,5C 10.8559,4.83128 18.1892,4.33128 25.5,3.5C 17.855,2.33521 10.1883,2.16855 2.5,3C 2,3.5 1.5,4 1,4.5C 0.333333,29.8333 0.333333,55.1667 1,80.5C 1.71719,81.0442 2.21719,81.7109 2.5,82.5C 1.5,82.5 0.5,82.5 -0.5,82.5C -0.5,54.8333 -0.5,27.1667 -0.5,-0.5 Z"/></g>
<g><path style="opacity:1" fill="#7275f1" d="M 63.5,33.5 C 64.4345,32.4324 64.7678,31.099 64.5,29.5C 61.2869,29.19 58.2869,29.5233 55.5,30.5C 55.4348,32.6957 54.7681,34.6957 53.5,36.5C 52.6143,35.675 52.281,34.675 52.5,33.5C 53.4345,32.4324 53.7678,31.099 53.5,29.5C 49.2984,29.1832 45.2984,29.5166 41.5,30.5C 40.8333,38.5 40.1667,38.5 39.5,30.5C 35.7016,29.5166 31.7016,29.1832 27.5,29.5C 27.2322,31.099 27.5655,32.4324 28.5,33.5C 28.719,34.675 28.3857,35.675 27.5,36.5C 26.2319,34.6957 25.5652,32.6957 25.5,30.5C 22.7131,29.5233 19.7131,29.19 16.5,29.5C 16.2627,30.791 16.596,31.791 17.5,32.5C 17.762,33.9778 17.4287,35.3112 16.5,36.5C 13.314,28.4001 14.1473,20.7334 19,13.5C 28.8424,2.08407 40.6757,-0.415933 54.5,6C 62.085,11.6739 66.085,19.1739 66.5,28.5C 66.4407,30.8912 66.1074,33.2246 65.5,35.5C 65.1667,35.8333 64.8333,36.1667 64.5,36.5C 63.6143,35.675 63.281,34.675 63.5,33.5 Z"/></g>
<g><path style="opacity:1" fill="#6b6ff1" d="M 5.5,7.5 C 7.33702,7.63945 7.67036,8.30612 6.5,9.5C 5.70245,9.04311 5.36912,8.37644 5.5,7.5 Z"/></g>
<g><path style="opacity:1" fill="#6b6ff1" d="M 10.5,7.5 C 12.337,7.63945 12.6704,8.30612 11.5,9.5C 10.7025,9.04311 10.3691,8.37644 10.5,7.5 Z"/></g>
<g><path style="opacity:1" fill="#e3e0fc" d="M 28.5,14.5 C 26.2646,14.7947 24.2646,14.4614 22.5,13.5C 25.7677,9.04804 30.1011,6.54804 35.5,6C 32.5464,8.44117 30.2131,11.2745 28.5,14.5 Z"/></g>
<g><path style="opacity:1" fill="#ece9fc" d="M 37.5,7.5 C 38.4682,9.60737 38.8016,11.9407 38.5,14.5C 36.2646,14.7947 34.2646,14.4614 32.5,13.5C 33.4431,10.8908 35.1097,8.89084 37.5,7.5 Z"/></g>
<g><path style="opacity:1" fill="#e6e3fc" d="M 48.5,13.5 C 46.3926,14.4682 44.0593,14.8016 41.5,14.5C 41.4294,4.56105 43.7627,4.22771 48.5,13.5 Z"/></g>
<g><path style="opacity:1" fill="#e4e1fc" d="M 58.5,13.5 C 56.7354,14.4614 54.7354,14.7947 52.5,14.5C 50.7869,11.2745 48.4536,8.44117 45.5,6C 50.8989,6.54804 55.2323,9.04804 58.5,13.5 Z"/></g>
<g><path style="opacity:1" fill="#6b6ff1" d="M 73.5,7.5 C 75.337,7.63945 75.6704,8.30612 74.5,9.5C 73.7025,9.04311 73.3691,8.37644 73.5,7.5 Z"/></g>
<g><path style="opacity:1" fill="#acadf6" d="M 12.5,12.5 C 13.404,13.209 13.7373,14.209 13.5,15.5C 10.1667,15.5 6.83333,15.5 3.5,15.5C 6.79669,15.11 9.79669,14.11 12.5,12.5 Z"/></g>
<g><path style="opacity:1" fill="#acadf6" d="M 68.5,12.5 C 71.2033,14.11 74.2033,15.11 77.5,15.5C 74.1667,15.5 70.8333,15.5 67.5,15.5C 67.2627,14.209 67.596,13.209 68.5,12.5 Z"/></g>
<g><path style="opacity:1" fill="#abacf6" d="M 22.5,13.5 C 24.2646,14.4614 26.2646,14.7947 28.5,14.5C 26.3066,15.7969 23.9732,15.7969 21.5,14.5C 21.6236,13.8933 21.9569,13.56 22.5,13.5 Z"/></g>
<g><path style="opacity:1" fill="#b8b7f7" d="M 37.5,7.5 C 37.56,6.95691 37.8933,6.62358 38.5,6.5C 39.4841,9.42814 39.8174,12.4281 39.5,15.5C 36.7531,15.8134 34.0865,15.48 31.5,14.5C 31.6236,13.8933 31.9569,13.56 32.5,13.5C 34.2646,14.4614 36.2646,14.7947 38.5,14.5C 38.8016,11.9407 38.4682,9.60737 37.5,7.5 Z"/></g>
<g><path style="opacity:1" fill="#adaef6" d="M 48.5,13.5 C 49.0431,13.56 49.3764,13.8933 49.5,14.5C 46.6908,15.8003 44.0241,15.8003 41.5,14.5C 44.0593,14.8016 46.3926,14.4682 48.5,13.5 Z"/></g>
<g><path style="opacity:1" fill="#abacf6" d="M 58.5,13.5 C 59.0431,13.56 59.3764,13.8933 59.5,14.5C 57.0268,15.7969 54.6934,15.7969 52.5,14.5C 54.7354,14.7947 56.7354,14.4614 58.5,13.5 Z"/></g>
<g><path style="opacity:1" fill="#eae7fc" d="M 19.5,17.5 C 22.1873,17.3359 24.854,17.5026 27.5,18C 25.9239,20.9508 25.2572,24.1174 25.5,27.5C 22.5,27.5 19.5,27.5 16.5,27.5C 16.698,23.9076 17.698,20.5742 19.5,17.5 Z"/></g>
<g><path style="opacity:1" fill="#ebe8fc" d="M 29.5,17.5 C 32.8333,17.5 36.1667,17.5 39.5,17.5C 39.5,20.8333 39.5,24.1667 39.5,27.5C 35.8333,27.5 32.1667,27.5 28.5,27.5C 28.6159,24.1401 28.9492,20.8067 29.5,17.5 Z"/></g>
<g><path style="opacity:1" fill="#ebe8fc" d="M 41.5,17.5 C 44.8333,17.5 48.1667,17.5 51.5,17.5C 52.0508,20.8067 52.3841,24.1401 52.5,27.5C 48.8333,27.5 45.1667,27.5 41.5,27.5C 41.5,24.1667 41.5,20.8333 41.5,17.5 Z"/></g>
<g><path style="opacity:1" fill="#eae7fc" d="M 53.5,18.5 C 61.3703,15.7302 65.037,18.7302 64.5,27.5C 61.5,27.5 58.5,27.5 55.5,27.5C 55.7847,24.1709 55.1181,21.1709 53.5,18.5 Z"/></g>
<g><path style="opacity:1" fill="#acadf6" d="M 25.5,30.5 C 22.3019,29.9644 19.6353,30.631 17.5,32.5C 16.596,31.791 16.2627,30.791 16.5,29.5C 19.7131,29.19 22.7131,29.5233 25.5,30.5 Z"/></g>
<g><path style="opacity:1" fill="#a6a7f5" d="M 39.5,30.5 C 35.8333,30.5 32.1667,30.5 28.5,30.5C 28.5,31.5 28.5,32.5 28.5,33.5C 27.5655,32.4324 27.2322,31.099 27.5,29.5C 31.7016,29.1832 35.7016,29.5166 39.5,30.5 Z"/></g>
<g><path style="opacity:1" fill="#a5a6f5" d="M 41.5,30.5 C 45.2984,29.5166 49.2984,29.1832 53.5,29.5C 53.7678,31.099 53.4345,32.4324 52.5,33.5C 52.5,32.5 52.5,31.5 52.5,30.5C 48.8333,30.5 45.1667,30.5 41.5,30.5 Z"/></g>
<g><path style="opacity:1" fill="#ababf6" d="M 55.5,30.5 C 58.2869,29.5233 61.2869,29.19 64.5,29.5C 64.7678,31.099 64.4345,32.4324 63.5,33.5C 63.5,32.5 63.5,31.5 63.5,30.5C 60.8333,30.5 58.1667,30.5 55.5,30.5 Z"/></g>
<g><path style="opacity:1" fill="#7678f2" d="M 18.5,39.5 C 33.9296,39.0318 49.2629,39.5318 64.5,41C 66.0926,44.2615 68.0926,47.2615 70.5,50C 69.392,52.1124 67.892,53.9458 66,55.5C 65.6667,59.8333 65.3333,64.1667 65,68.5C 59.2488,69.3104 53.4155,69.8104 47.5,70C 45.3171,72.3504 42.9837,74.517 40.5,76.5C 38.0163,74.517 35.6829,72.3504 33.5,70C 27.8333,69.6667 22.1667,69.3333 16.5,69C 14.9074,65.7385 12.9074,62.7385 10.5,60C 11.608,57.8876 13.108,56.0542 15,54.5C 15.3333,50.1667 15.6667,45.8333 16,41.5C 16.9947,40.9341 17.828,40.2674 18.5,39.5 Z"/></g>
<g><path style="opacity:1" fill="#e4e1fc" d="M 18.5,42.5 C 33.1705,42.3334 47.8371,42.5001 62.5,43C 63.3608,45.8682 65.0275,48.2015 67.5,50C 66.3333,51.1667 65.1667,52.3333 64,53.5C 63.6667,57.8333 63.3333,62.1667 63,66.5C 57.2488,67.3104 51.4155,67.8104 45.5,68C 43.9825,69.6851 42.3159,71.1851 40.5,72.5C 38.6841,71.1851 37.0175,69.6851 35.5,68C 29.8333,67.6667 24.1667,67.3333 18.5,67C 17.6392,64.1318 15.9725,61.7985 13.5,60C 15,58.5 16.5,57 18,55.5C 18.499,51.1794 18.6657,46.8461 18.5,42.5 Z"/></g>
<g><path style="opacity:1" fill="#6f72f1" d="M 21.5,46.5 C 34.1667,46.5 46.8333,46.5 59.5,46.5C 59.5,48.8333 59.5,51.1667 59.5,53.5C 46.8333,53.5 34.1667,53.5 21.5,53.5C 21.5,51.1667 21.5,48.8333 21.5,46.5 Z"/></g>
<g><path style="opacity:1" fill="#dedcfb" d="M 24.5,48.5 C 35.1667,48.5 45.8333,48.5 56.5,48.5C 56.5,49.5 56.5,50.5 56.5,51.5C 45.8333,51.5 35.1667,51.5 24.5,51.5C 24.5,50.5 24.5,49.5 24.5,48.5 Z"/></g>
<g><path style="opacity:1" fill="#6c70f1" d="M 21.5,56.5 C 34.1842,56.1676 46.8508,56.5009 59.5,57.5C 53.1667,57.8333 46.8333,58.1667 40.5,58.5C 33.7963,58.4964 27.463,57.8298 21.5,56.5 Z"/></g>
<g><path style="opacity:1" fill="#6d71f1" d="M 21.5,61.5 C 30.8571,61.1684 40.1904,61.5017 49.5,62.5C 44.8333,62.8333 40.1667,63.1667 35.5,63.5C 30.4492,63.4933 25.7825,62.8266 21.5,61.5 Z"/></g>
<g><path style="opacity:1" fill="#7c7ef2" d="M 51.5,61.5 C 52.675,61.281 53.675,61.6143 54.5,62.5C 52.9483,63.7979 51.9483,63.4646 51.5,61.5 Z"/></g>
<g><path style="opacity:1" fill="#7c7ef2" d="M 56.5,61.5 C 57.675,61.281 58.675,61.6143 59.5,62.5C 57.9483,63.7979 56.9483,63.4646 56.5,61.5 Z"/></g>
<g><path style="opacity:1" fill="#d6d3fa" d="M 80.5,80.5 C 80.5,81.1667 80.5,81.8333 80.5,82.5C 79.8333,82.5 79.1667,82.5 78.5,82.5C 78.8333,81.5 79.5,80.8333 80.5,80.5 Z"/></g>
</svg>
