<?xml version="1.0" encoding="UTF-8"?>
<!DOCTYPE svg PUBLIC "-//W3C//DTD SVG 1.1//EN" "http://www.w3.org/Graphics/SVG/1.1/DTD/svg11.dtd">
<svg xmlns="http://www.w3.org/2000/svg" version="1.1" width="140px" height="115px" style="shape-rendering:geometricPrecision; text-rendering:geometricPrecision; image-rendering:optimizeQuality; fill-rule:evenodd; clip-rule:evenodd" xmlns:xlink="http://www.w3.org/1999/xlink">
<g><path style="opacity:1" fill="#fdfdfe" d="M -0.5,-0.5 C 46.1667,-0.5 92.8333,-0.5 139.5,-0.5C 139.5,37.8333 139.5,76.1667 139.5,114.5C 92.8333,114.5 46.1667,114.5 -0.5,114.5C -0.5,76.1667 -0.5,37.8333 -0.5,-0.5 Z"/></g>
<g><path style="opacity:1" fill="#6b6ff1" d="M 23.5,10.5 C 56.2538,10.0144 88.9204,10.5144 121.5,12C 122,12.5 122.5,13 123,13.5C 123.5,39.8312 123.667,66.1646 123.5,92.5C 122.5,92.5 121.5,92.5 120.5,92.5C 120.5,70.8333 120.5,49.1667 120.5,27.5C 88.1667,27.5 55.8333,27.5 23.5,27.5C 23.833,49.1769 23.4997,70.8436 22.5,92.5C 21.914,92.2907 21.414,91.9574 21,91.5C 20.3333,65.5 20.3333,39.5 21,13.5C 22.045,12.6266 22.8783,11.6266 23.5,10.5 Z"/></g>
<g><path style="opacity:1" fill="#f7f7fe" d="M 119.5,15.5 C 119.5,18.1667 119.5,20.8333 119.5,23.5C 87.8333,23.5 56.1667,23.5 24.5,23.5C 24.5,20.5 24.5,17.5 24.5,14.5C 40.4276,13.8405 56.4276,13.5072 72.5,13.5C 88.5145,13.5006 104.181,14.1672 119.5,15.5 Z"/></g>
<g><path style="opacity:1" fill="#d9d9fb" d="M 24.5,14.5 C 24.5,17.5 24.5,20.5 24.5,23.5C 56.1667,23.5 87.8333,23.5 119.5,23.5C 119.5,20.8333 119.5,18.1667 119.5,15.5C 120.477,18.2869 120.81,21.2869 120.5,24.5C 88.1667,24.5 55.8333,24.5 23.5,24.5C 23.1872,20.9581 23.5206,17.6248 24.5,14.5 Z"/></g>
<g><path style="opacity:1" fill="#787af2" d="M 41.5,17.5 C 45.31,18.7542 45.31,19.7542 41.5,20.5C 41.5,19.5 41.5,18.5 41.5,17.5 Z"/></g>
<g><path style="opacity:1" fill="#8182f2" d="M 34.5,17.5 C 35.5,17.5 36.5,17.5 37.5,17.5C 37.5,18.5 37.5,19.5 37.5,20.5C 36.5,20.5 35.5,20.5 34.5,20.5C 34.5,19.5 34.5,18.5 34.5,17.5 Z"/></g>
<g><path style="opacity:1" fill="#7b7df2" d="M 28.5,17.5 C 30.0481,17.8212 30.7148,18.8212 30.5,20.5C 27.7524,20.5983 27.0857,19.5983 28.5,17.5 Z"/></g>
<g><path style="opacity:1" fill="#7678f2" d="M 70.5,32.5 C 88.1052,33.7738 97.7719,43.1071 99.5,60.5C 97.9425,77.2247 88.7759,86.5581 72,88.5C 50.6987,84.5253 42.0321,71.8586 46,50.5C 51.1201,40.2045 59.2868,34.2045 70.5,32.5 Z"/></g>
<g><path style="opacity:1" fill="#f8f8fe" d="M 71.5,36.5 C 74.1456,38.4789 76.4789,40.8122 78.5,43.5C 74.1667,44.8333 69.8333,44.8333 65.5,43.5C 67.5227,41.1472 69.5227,38.8138 71.5,36.5 Z"/></g>
<g><path style="opacity:1" fill="#f6f6fe" d="M 62.5,37.5 C 63.552,37.3505 64.552,37.5172 65.5,38C 64.2986,38.9025 63.4652,40.0692 63,41.5C 61.6439,42.3802 60.1439,42.7135 58.5,42.5C 58.5191,44.0603 58.8524,45.5603 59.5,47C 57.8007,50.9959 56.8007,55.1625 56.5,59.5C 54.712,59.2148 53.0453,59.5481 51.5,60.5C 52.6685,62.2174 54.3352,62.8841 56.5,62.5C 57.0298,66.2849 58.0298,69.9515 59.5,73.5C 57.2868,76.7501 54.7868,77.0835 52,74.5C 44.8044,58.9292 48.3044,46.5959 62.5,37.5 Z"/></g>
<g><path style="opacity:1" fill="#efeffd" d="M 78.5,38.5 C 81.4519,38.1167 84.1186,39.2833 86.5,42C 85.4071,43.3654 84.0738,43.6987 82.5,43C 81.2668,41.3333 79.9335,39.8333 78.5,38.5 Z"/></g>
<g><path style="opacity:1" fill="#f4f4fe" d="M 87.5,45.5 C 89.1439,45.2865 90.6439,45.6198 92,46.5C 94.2599,50.5396 95.4266,54.8729 95.5,59.5C 92.8333,59.5 90.1667,59.5 87.5,59.5C 87.7323,55.196 86.7323,51.196 84.5,47.5C 85.6016,46.8243 86.6016,46.1577 87.5,45.5 Z"/></g>
<g><path style="opacity:1" fill="#fdfdfe" d="M 83.5,56.5 C 80.0623,57.8232 76.229,58.4898 72,58.5C 67.771,58.4898 63.9377,57.8232 60.5,56.5C 59.9653,52.576 61.2987,49.576 64.5,47.5C 70.1369,48.2426 75.8036,48.7426 81.5,49C 82.8672,51.3015 83.5339,53.8015 83.5,56.5 Z"/></g>
<g><path style="opacity:1" fill="#aeaff6" d="M 60.5,56.5 C 63.9377,57.8232 67.771,58.4898 72,58.5C 76.229,58.4898 80.0623,57.8232 83.5,56.5C 84.404,57.209 84.7373,58.209 84.5,59.5C 76.1667,59.5 67.8333,59.5 59.5,59.5C 59.2627,58.209 59.596,57.209 60.5,56.5 Z"/></g>
<g><path style="opacity:1" fill="#fdfdfe" d="M 60.5,62.5 C 68.1667,62.5 75.8333,62.5 83.5,62.5C 83.533,65.836 82.8664,69.0027 81.5,72C 75.6291,72.2312 69.7957,72.7312 64,73.5C 61.4617,70.371 60.295,66.7043 60.5,62.5 Z"/></g>
<g><path style="opacity:1" fill="#f7f7fe" d="M 87.5,62.5 C 90.1667,62.5 92.8333,62.5 95.5,62.5C 95.2661,66.7686 94.0994,70.7686 92,74.5C 89.3707,75.7255 86.8707,75.3922 84.5,73.5C 85.9702,69.9515 86.9702,66.2849 87.5,62.5 Z"/></g>
<g><path style="opacity:1" fill="#f8f8fe" d="M 65.5,76.5 C 69.8839,76.1744 74.2172,76.5078 78.5,77.5C 76.517,79.9837 74.3504,82.3171 72,84.5C 69.2179,82.2295 67.0512,79.5628 65.5,76.5 Z"/></g>
<g><path style="opacity:1" fill="#e7e7fc" d="M 82.5,77.5 C 84.4286,77.2308 86.0953,77.7308 87.5,79C 84.7393,81.221 81.7393,82.5544 78.5,83C 79.965,81.2258 81.2983,79.3925 82.5,77.5 Z"/></g>
<g><path style="opacity:1" fill="#e5e4fc" d="M 57.5,78.5 C 59.1992,78.3398 60.8659,78.5065 62.5,79C 63.2567,80.5122 64.2567,81.8455 65.5,83C 64.5,83.6667 63.5,83.6667 62.5,83C 60.3083,81.9331 58.6417,80.4331 57.5,78.5 Z"/></g>
<g><path style="opacity:1" fill="#6f73f1" d="M 68.5,93.5 C 73.8797,92.8564 77.8797,94.8564 80.5,99.5C 92.4815,100.499 104.482,100.832 116.5,100.5C 116.5,101.5 116.5,102.5 116.5,103.5C 104.167,103.5 91.8333,103.5 79.5,103.5C 78.2402,109.575 74.5735,111.741 68.5,110C 66.6487,108.316 64.982,106.483 63.5,104.5C 51.5185,103.501 39.5185,103.168 27.5,103.5C 27.5,102.5 27.5,101.5 27.5,100.5C 39.5185,100.832 51.5185,100.499 63.5,99.5C 64.843,97.1634 66.5096,95.1634 68.5,93.5 Z"/></g>
<g><path style="opacity:1" fill="#f3f3fe" d="M 70.5,96.5 C 76.689,97.2184 78.3556,100.218 75.5,105.5C 72.0865,107.046 69.2531,106.38 67,103.5C 66.5761,100.348 67.7428,98.0144 70.5,96.5 Z"/></g>
<g><path style="opacity:1" fill="#7678f2" d="M 20.5,100.5 C 21.5,100.5 22.5,100.5 23.5,100.5C 22.7542,104.31 21.7542,104.31 20.5,100.5 Z"/></g>
<g><path style="opacity:1" fill="#7678f2" d="M 120.5,100.5 C 123.957,100.667 124.29,101.667 121.5,103.5C 120.614,102.675 120.281,101.675 120.5,100.5 Z"/></g>
</svg>
