<?xml version="1.0" encoding="UTF-8"?>
<!DOCTYPE svg PUBLIC "-//W3C//DTD SVG 1.1//EN" "http://www.w3.org/Graphics/SVG/1.1/DTD/svg11.dtd">
<svg xmlns="http://www.w3.org/2000/svg" version="1.1" width="167px" height="112px" style="shape-rendering:geometricPrecision; text-rendering:geometricPrecision; image-rendering:optimizeQuality; fill-rule:evenodd; clip-rule:evenodd" xmlns:xlink="http://www.w3.org/1999/xlink">
<g><path style="opacity:1" fill="#fdfdfe" d="M -0.5,-0.5 C 55.1667,-0.5 110.833,-0.5 166.5,-0.5C 166.5,36.8333 166.5,74.1667 166.5,111.5C 110.833,111.5 55.1667,111.5 -0.5,111.5C -0.5,74.1667 -0.5,36.8333 -0.5,-0.5 Z"/></g>
<g><path style="opacity:1" fill="#7175f1" d="M 32.5,8.5 C 65.835,8.33335 99.1683,8.50002 132.5,9C 133.931,9.46524 135.097,10.2986 136,11.5C 136.667,40.5 136.667,69.5 136,98.5C 135.097,99.7014 133.931,100.535 132.5,101C 126.843,101.499 121.176,101.666 115.5,101.5C 115.5,100.167 115.5,98.8333 115.5,97.5C 121.425,97.8082 127.259,97.4749 133,96.5C 133.5,73.169 133.667,49.8357 133.5,26.5C 99.8333,26.5 66.1667,26.5 32.5,26.5C 32.3334,49.8357 32.5,73.169 33,96.5C 38.4171,97.3089 43.9171,97.8089 49.5,98C 50.8333,99 50.8333,100 49.5,101C 43.8333,101.667 38.1667,101.667 32.5,101C 31.6667,100.167 30.8333,99.3333 30,98.5C 29.3333,69.5 29.3333,40.5 30,11.5C 31.045,10.6266 31.8783,9.62656 32.5,8.5 Z"/></g>
<g><path style="opacity:1" fill="#f7f7fe" d="M 34.5,11.5 C 67.1735,11.1668 99.8401,11.5001 132.5,12.5C 133.417,15.7577 133.751,19.091 133.5,22.5C 99.8333,22.5 66.1667,22.5 32.5,22.5C 32.0357,18.4975 32.7024,14.8309 34.5,11.5 Z"/></g>
<g><path style="opacity:1" fill="#9090f4" d="M 37.5,15.5 C 40.8606,16.2032 41.1939,17.5365 38.5,19.5C 36.3576,18.5629 36.0243,17.2296 37.5,15.5 Z"/></g>
<g><path style="opacity:1" fill="#9090f4" d="M 44.5,15.5 C 47.8606,16.2032 48.1939,17.5365 45.5,19.5C 43.3576,18.5629 43.0243,17.2296 44.5,15.5 Z"/></g>
<g><path style="opacity:1" fill="#8586f3" d="M 51.5,15.5 C 54.8606,16.2032 55.1939,17.5365 52.5,19.5C 51.5713,18.3112 51.238,16.9778 51.5,15.5 Z"/></g>
<g><path style="opacity:1" fill="#7678f2" d="M 81.5,32.5 C 83.5922,32.5614 85.0922,33.5614 86,35.5C 89.2451,42.3245 92.7451,48.9911 96.5,55.5C 105.052,57.1186 113.552,58.7852 122,60.5C 122.667,61.5 122.667,62.5 122,63.5C 116.667,68.8333 111.333,74.1667 106,79.5C 105.91,88.0621 106.743,96.5621 108.5,105C 108.415,106.107 108.081,107.107 107.5,108C 99.1296,104.902 90.963,101.068 83,96.5C 75.037,101.068 66.8704,104.902 58.5,108C 57.9186,107.107 57.5852,106.107 57.5,105C 59.0901,96.5449 59.9235,88.0449 60,79.5C 54.6667,74.1667 49.3333,68.8333 44,63.5C 43.51,62.2068 43.3433,60.8734 43.5,59.5C 51.5106,58.4746 59.5106,57.308 67.5,56C 70.4043,54.0178 72.7377,51.5178 74.5,48.5C 75.1997,52.3256 74.1997,55.8256 71.5,59C 63.7744,60.0098 56.1078,61.3431 48.5,63C 54.033,68.1983 59.1996,73.6983 64,79.5C 64.2013,86.1961 63.7013,92.8628 62.5,99.5C 62.8333,100.5 63.1667,101.5 63.5,102.5C 70.0599,99.6368 76.5599,96.6368 83,93.5C 90.2581,96.2958 97.2581,99.6291 104,103.5C 103.338,95.5399 102.671,87.5399 102,79.5C 106.8,73.6983 111.967,68.1983 117.5,63C 109.774,61.9902 102.108,60.6569 94.5,59C 90.6667,51.8333 86.8333,44.6667 83,37.5C 82.2676,40.7106 80.4343,42.7106 77.5,43.5C 78.0007,39.5046 79.3341,35.8379 81.5,32.5 Z"/></g>
</svg>
