<?xml version="1.0" encoding="UTF-8"?>
<!DOCTYPE svg PUBLIC "-//W3C//DTD SVG 1.1//EN" "http://www.w3.org/Graphics/SVG/1.1/DTD/svg11.dtd">
<svg xmlns="http://www.w3.org/2000/svg" version="1.1" width="82px" height="82px" style="shape-rendering:geometricPrecision; text-rendering:geometricPrecision; image-rendering:optimizeQuality; fill-rule:evenodd; clip-rule:evenodd" xmlns:xlink="http://www.w3.org/1999/xlink">
<g><path style="opacity:1" fill="#eeebfc" d="M -0.5,-0.5 C 26.8333,-0.5 54.1667,-0.5 81.5,-0.5C 81.5,26.8333 81.5,54.1667 81.5,81.5C 80.5,81.5 79.5,81.5 78.5,81.5C 78.7828,80.7109 79.2828,80.0442 80,79.5C 80.6667,54.1667 80.6667,28.8333 80,3.5C 79.5,3 79,2.5 78.5,2C 53.1667,1.33333 27.8333,1.33333 2.5,2C 2,2.5 1.5,3 1,3.5C 0.333333,28.8333 0.333333,54.1667 1,79.5C 1.71719,80.0442 2.21719,80.7109 2.5,81.5C 1.5,81.5 0.5,81.5 -0.5,81.5C -0.5,54.1667 -0.5,26.8333 -0.5,-0.5 Z"/></g>
<g><path style="opacity:1" fill="#6b6ff1" d="M 78.5,81.5 C 53.1667,81.5 27.8333,81.5 2.5,81.5C 2.21719,80.7109 1.71719,80.0442 1,79.5C 0.333333,54.1667 0.333333,28.8333 1,3.5C 1.5,3 2,2.5 2.5,2C 27.8333,1.33333 53.1667,1.33333 78.5,2C 79,2.5 79.5,3 80,3.5C 80.6667,28.8333 80.6667,54.1667 80,79.5C 79.2828,80.0442 78.7828,80.7109 78.5,81.5 Z"/></g>
<g><path style="opacity:1" fill="#e4e1fc" d="M 3.5,3.5 C 28.1689,3.33336 52.8356,3.50003 77.5,4C 78.435,6.3806 78.7683,8.8806 78.5,11.5C 53.1667,11.5 27.8333,11.5 2.5,11.5C 2.27863,8.72116 2.61197,6.05449 3.5,3.5 Z"/></g>
<g><path style="opacity:1" fill="#6b6ff1" d="M 5.5,6.5 C 7.33702,6.63945 7.67036,7.30612 6.5,8.5C 5.70245,8.04311 5.36912,7.37644 5.5,6.5 Z"/></g>
<g><path style="opacity:1" fill="#6b6ff1" d="M 10.5,6.5 C 12.337,6.63945 12.6704,7.30612 11.5,8.5C 10.7025,8.04311 10.3691,7.37644 10.5,6.5 Z"/></g>
<g><path style="opacity:1" fill="#6b6ff1" d="M 73.5,6.5 C 75.337,6.63945 75.6704,7.30612 74.5,8.5C 73.7025,8.04311 73.3691,7.37644 73.5,6.5 Z"/></g>
<g><path style="opacity:1" fill="#e7e4fc" d="M 3.5,13.5 C 28.1689,13.3334 52.8356,13.5 77.5,14C 78.6598,35.4271 78.8265,56.9271 78,78.5C 53.239,79.6607 28.4057,79.8274 3.5,79C 2.17187,57.1667 2.17187,35.3334 3.5,13.5 Z"/></g>
<g><path style="opacity:1" fill="#b1b1f7" d="M 39.5,19.5 C 42.2869,18.5233 45.2869,18.19 48.5,18.5C 48.7373,19.791 48.404,20.791 47.5,21.5C 45.3647,19.631 42.6981,18.9644 39.5,19.5 Z"/></g>
<g><path style="opacity:1" fill="#6b6ff1" d="M 39.5,19.5 C 42.6981,18.9644 45.3647,19.631 47.5,21.5C 44.5342,21.1103 41.8676,21.777 39.5,23.5C 38.218,22.0416 38.218,20.7082 39.5,19.5 Z"/></g>
<g><path style="opacity:1" fill="#6f72f1" d="M 50.5,19.5 C 58.5,19.5 66.5,19.5 74.5,19.5C 74.5,21.8333 74.5,24.1667 74.5,26.5C 66.5,26.5 58.5,26.5 50.5,26.5C 50.5,24.1667 50.5,21.8333 50.5,19.5 Z"/></g>
<g><path style="opacity:1" fill="#7376f1" d="M 27.5,39.5 C 29.8333,39.5 32.1667,39.5 34.5,39.5C 34.5,35.5 34.5,31.5 34.5,27.5C 37.6248,26.5206 40.9581,26.1872 44.5,26.5C 44.5,35.1667 44.5,43.8333 44.5,52.5C 46.1667,52.5 47.8333,52.5 49.5,52.5C 49.5,48.1667 49.5,43.8333 49.5,39.5C 52.8333,39.5 56.1667,39.5 59.5,39.5C 59.5,48.5 59.5,57.5 59.5,66.5C 64.7086,66.3693 66.3753,68.7026 64.5,73.5C 63.5713,72.3112 63.238,70.9778 63.5,69.5C 47.4965,69.6666 31.4965,69.4999 15.5,69C 15,68.5 14.5,68 14,67.5C 13.6667,53.1667 13.3333,38.8333 13,24.5C 10.8526,23.8875 8.68597,23.2208 6.5,22.5C 9.6116,21.0171 12.4449,21.3504 15,23.5C 15.4999,37.8295 15.6666,52.1628 15.5,66.5C 16.8333,66.5 18.1667,66.5 19.5,66.5C 19.5,59.8333 19.5,53.1667 19.5,46.5C 21.8333,46.5 24.1667,46.5 26.5,46.5C 26.1984,43.9407 26.5318,41.6074 27.5,39.5 Z"/></g>
<g><path style="opacity:1" fill="#eeecfc" d="M 53.5,21.5 C 59.9262,20.88 65.9262,21.5467 71.5,23.5C 65.0738,24.12 59.0738,23.4533 53.5,21.5 Z"/></g>
<g><path style="opacity:1" fill="#acacf6" d="M 53.5,21.5 C 59.0738,23.4533 65.0738,24.12 71.5,23.5C 65.3554,24.4902 59.0221,24.8235 52.5,24.5C 52.2627,23.209 52.596,22.209 53.5,21.5 Z"/></g>
<g><path style="opacity:1" fill="#c4c3f9" d="M 34.5,27.5 C 34.5,31.5 34.5,35.5 34.5,39.5C 32.1667,39.5 29.8333,39.5 27.5,39.5C 29.2646,38.5386 31.2646,38.2053 33.5,38.5C 33.185,34.6286 33.5184,30.9619 34.5,27.5 Z"/></g>
<g><path style="opacity:1" fill="#a8a9f5" d="M 50.5,29.5 C 54.97,28.5139 59.6367,28.1805 64.5,28.5C 64.7373,29.791 64.404,30.791 63.5,31.5C 59.6273,29.5698 55.294,28.9031 50.5,29.5 Z"/></g>
<g><path style="opacity:1" fill="#eeecfc" d="M 41.5,53.5 C 41.5,57.8333 41.5,62.1667 41.5,66.5C 40.1667,66.5 38.8333,66.5 37.5,66.5C 37.5,54.1667 37.5,41.8333 37.5,29.5C 38.8333,29.5 40.1667,29.5 41.5,29.5C 41.5,37.5 41.5,45.5 41.5,53.5 Z"/></g>
<g><path style="opacity:1" fill="#9f9ff5" d="M 41.5,53.5 C 41.5,45.5 41.5,37.5 41.5,29.5C 40.1667,29.5 38.8333,29.5 37.5,29.5C 37.5,41.8333 37.5,54.1667 37.5,66.5C 36.5046,54.011 36.1713,41.3443 36.5,28.5C 38.5,28.5 40.5,28.5 42.5,28.5C 42.8261,37.0168 42.4927,45.3501 41.5,53.5 Z"/></g>
<g><path style="opacity:1" fill="#6b6ff1" d="M 50.5,29.5 C 55.294,28.9031 59.6273,29.5698 63.5,31.5C 58.706,32.0969 54.3727,31.4302 50.5,29.5 Z"/></g>
<g><path style="opacity:1" fill="#8a8bf3" d="M 66.5,28.5 C 67.5,28.5 68.5,28.5 69.5,28.5C 69.5,29.5 69.5,30.5 69.5,31.5C 68.5,31.5 67.5,31.5 66.5,31.5C 66.5,30.5 66.5,29.5 66.5,28.5 Z"/></g>
<g><path style="opacity:1" fill="#8a8bf3" d="M 71.5,28.5 C 72.5,28.5 73.5,28.5 74.5,28.5C 74.5,29.5 74.5,30.5 74.5,31.5C 73.5,31.5 72.5,31.5 71.5,31.5C 71.5,30.5 71.5,29.5 71.5,28.5 Z"/></g>
<g><path style="opacity:1" fill="#e5e2fc" d="M 29.5,41.5 C 31.1667,41.5 32.8333,41.5 34.5,41.5C 34.5,49.8333 34.5,58.1667 34.5,66.5C 32.8333,66.5 31.1667,66.5 29.5,66.5C 29.5,58.1667 29.5,49.8333 29.5,41.5 Z"/></g>
<g><path style="opacity:1" fill="#e6e4fc" d="M 51.5,41.5 C 53.1667,41.5 54.8333,41.5 56.5,41.5C 56.5,49.8333 56.5,58.1667 56.5,66.5C 54.8333,66.5 53.1667,66.5 51.5,66.5C 51.5,58.1667 51.5,49.8333 51.5,41.5 Z"/></g>
<g><path style="opacity:1" fill="#c7c6f9" d="M 26.5,49.5 C 25.1667,49.5 23.8333,49.5 22.5,49.5C 22.5,55.1667 22.5,60.8333 22.5,66.5C 21.5104,60.69 21.1771,54.69 21.5,48.5C 23.4147,48.2155 25.0813,48.5489 26.5,49.5 Z"/></g>
<g><path style="opacity:1" fill="#eeecfc" d="M 26.5,49.5 C 26.5,55.1667 26.5,60.8333 26.5,66.5C 25.1667,66.5 23.8333,66.5 22.5,66.5C 22.5,60.8333 22.5,55.1667 22.5,49.5C 23.8333,49.5 25.1667,49.5 26.5,49.5 Z"/></g>
<g><path style="opacity:1" fill="#e5e2fc" d="M 44.5,55.5 C 46.1667,55.5 47.8333,55.5 49.5,55.5C 49.5,59.1667 49.5,62.8333 49.5,66.5C 47.8333,66.5 46.1667,66.5 44.5,66.5C 44.5,62.8333 44.5,59.1667 44.5,55.5 Z"/></g>
</svg>
