<?xml version="1.0" encoding="UTF-8"?>
<!DOCTYPE svg PUBLIC "-//W3C//DTD SVG 1.1//EN" "http://www.w3.org/Graphics/SVG/1.1/DTD/svg11.dtd">
<svg xmlns="http://www.w3.org/2000/svg" version="1.1" width="81px" height="85px" style="shape-rendering:geometricPrecision; text-rendering:geometricPrecision; image-rendering:optimizeQuality; fill-rule:evenodd; clip-rule:evenodd" xmlns:xlink="http://www.w3.org/1999/xlink">
<g><path style="opacity:1" fill="#eeebfc" d="M -0.5,-0.5 C 26.5,-0.5 53.5,-0.5 80.5,-0.5C 80.5,1.16667 80.5,2.83333 80.5,4.5C 79.7109,4.21719 79.0442,3.71719 78.5,3C 53.1667,2.33333 27.8333,2.33333 2.5,3C 2,3.5 1.5,4 1,4.5C 0.333333,29.8333 0.333333,55.1667 1,80.5C 1.5,81 2,81.5 2.5,82C 27.8333,82.6667 53.1667,82.6667 78.5,82C 79.0442,81.2828 79.7109,80.7828 80.5,80.5C 80.5,81.8333 80.5,83.1667 80.5,84.5C 53.5,84.5 26.5,84.5 -0.5,84.5C -0.5,56.1667 -0.5,27.8333 -0.5,-0.5 Z"/></g>
<g><path style="opacity:1" fill="#6d70f0" d="M 80.5,4.5 C 80.5,29.8333 80.5,55.1667 80.5,80.5C 79.7109,80.7828 79.0442,81.2828 78.5,82C 53.1667,82.6667 27.8333,82.6667 2.5,82C 2,81.5 1.5,81 1,80.5C 0.333333,55.1667 0.333333,29.8333 1,4.5C 1.5,4 2,3.5 2.5,3C 27.8333,2.33333 53.1667,2.33333 78.5,3C 79.0442,3.71719 79.7109,4.21719 80.5,4.5 Z"/></g>
<g><path style="opacity:1" fill="#e5e2fc" d="M 3.5,4.5 C 28.1689,4.33336 52.8356,4.50003 77.5,5C 78.435,7.3806 78.7683,9.8806 78.5,12.5C 53.1667,12.5 27.8333,12.5 2.5,12.5C 2.27863,9.72116 2.61197,7.05449 3.5,4.5 Z"/></g>
<g><path style="opacity:1" fill="#9a99f4" d="M 5.5,7.5 C 6.5,7.5 7.5,7.5 8.5,7.5C 8.5,8.5 8.5,9.5 8.5,10.5C 7.5,10.5 6.5,10.5 5.5,10.5C 5.5,9.5 5.5,8.5 5.5,7.5 Z"/></g>
<g><path style="opacity:1" fill="#9a99f4" d="M 10.5,7.5 C 11.5,7.5 12.5,7.5 13.5,7.5C 13.5,8.5 13.5,9.5 13.5,10.5C 12.5,10.5 11.5,10.5 10.5,10.5C 10.5,9.5 10.5,8.5 10.5,7.5 Z"/></g>
<g><path style="opacity:1" fill="#6b6ff1" d="M 73.5,7.5 C 75.337,7.63945 75.6704,8.30612 74.5,9.5C 73.7025,9.04311 73.3691,8.37644 73.5,7.5 Z"/></g>
<g><path style="opacity:1" fill="#e3e0fa" d="M 25.5,69.5 C 37.1478,67.3341 41.9812,60.3341 40,48.5C 34.411,38.1182 26.2443,35.2849 15.5,40C 7.92589,46.5352 6.42589,54.3686 11,63.5C 13.9545,67.2269 17.7879,69.2269 22.5,69.5C 22.1788,71.0481 21.1788,71.7148 19.5,71.5C 19.5,74.5 19.5,77.5 19.5,80.5C 13.9066,80.8066 8.40655,80.4732 3,79.5C 2.33333,58.1667 2.33333,36.8333 3,15.5C 27.761,14.3393 52.5943,14.1726 77.5,15C 78.6598,36.4271 78.8265,57.9271 78,79.5C 76.6124,80.5536 75.1124,80.7203 73.5,80C 72.6789,69.5766 72.1789,59.0766 72,48.5C 68.5,45 65,41.5 61.5,38C 52.8142,37.1681 44.1475,37.3348 35.5,38.5C 43.4723,39.4977 51.4723,39.831 59.5,39.5C 59.5,43.5 59.5,47.5 59.5,51.5C 63.1667,51.5 66.8333,51.5 70.5,51.5C 70.5,61.1667 70.5,70.8333 70.5,80.5C 56.8333,80.5 43.1667,80.5 29.5,80.5C 29.5,77.5 29.5,74.5 29.5,71.5C 27.5168,71.8432 26.1834,71.1765 25.5,69.5 Z"/></g>
<g><path style="opacity:1" fill="#7578f1" d="M 8.5,18.5 C 29.8333,18.5 51.1667,18.5 72.5,18.5C 72.5,23.5 72.5,28.5 72.5,33.5C 51.1667,33.5 29.8333,33.5 8.5,33.5C 8.5,28.5 8.5,23.5 8.5,18.5 Z"/></g>
<g><path style="opacity:1" fill="#eae7fc" d="M 10.5,21.5 C 30.5,21.5 50.5,21.5 70.5,21.5C 70.5,24.8333 70.5,28.1667 70.5,31.5C 50.5,31.5 30.5,31.5 10.5,31.5C 10.5,28.1667 10.5,24.8333 10.5,21.5 Z"/></g>
<g><path style="opacity:1" fill="#6b6ff1" d="M 34.5,25.5 C 36.337,25.6395 36.6704,26.3061 35.5,27.5C 34.7025,27.0431 34.3691,26.3764 34.5,25.5 Z"/></g>
<g><path style="opacity:1" fill="#6b6ff1" d="M 39.5,25.5 C 41.337,25.6395 41.6704,26.3061 40.5,27.5C 39.7025,27.0431 39.3691,26.3764 39.5,25.5 Z"/></g>
<g><path style="opacity:1" fill="#6b6ff1" d="M 44.5,25.5 C 46.337,25.6395 46.6704,26.3061 45.5,27.5C 44.7025,27.0431 44.3691,26.3764 44.5,25.5 Z"/></g>
<g><path style="opacity:1" fill="#1b1b1c" d="M 25.5,69.5 C 24.5,68.1667 23.5,68.1667 22.5,69.5C 17.7879,69.2269 13.9545,67.2269 11,63.5C 6.42589,54.3686 7.92589,46.5352 15.5,40C 26.2443,35.2849 34.411,38.1182 40,48.5C 41.9812,60.3341 37.1478,67.3341 25.5,69.5 Z"/></g>
<g><path style="opacity:1" fill="#e9e6f8" d="M 18.5,40.5 C 32.1553,38.9898 38.3219,44.9898 37,58.5C 33.5006,65.9992 27.6673,68.8325 19.5,67C 10.7503,61.8363 8.58364,54.6696 13,45.5C 14.8119,43.6997 16.6452,42.0331 18.5,40.5 Z"/></g>
<g><path style="opacity:1" fill="#e7e4fc" d="M 61.5,42.5 C 63.6298,44.1271 65.6298,45.9604 67.5,48C 65.5273,48.4955 63.5273,48.6621 61.5,48.5C 61.5,46.5 61.5,44.5 61.5,42.5 Z"/></g>
<g><path style="opacity:1" fill="#7a7bf2" d="M 21.5,43.5 C 22.5,43.5 23.5,43.5 24.5,43.5C 24.5,44.5 24.5,45.5 24.5,46.5C 19.8333,46.5 17.5,48.8333 17.5,53.5C 16.325,53.719 15.325,53.3857 14.5,52.5C 15.7455,48.5954 18.0788,45.5954 21.5,43.5 Z"/></g>
<g><path style="opacity:1" fill="#6b6ff1" d="M 43.5,46.5 C 45.924,46.1924 48.2573,46.5258 50.5,47.5C 49.3333,47.8333 48.1667,48.1667 47,48.5C 45.3189,48.3917 44.1522,47.7251 43.5,46.5 Z"/></g>
<g><path style="opacity:1" fill="#6b6ff1" d="M 43.5,51.5 C 45.924,51.1924 48.2573,51.5258 50.5,52.5C 49.3333,52.8333 48.1667,53.1667 47,53.5C 45.3189,53.3917 44.1522,52.7251 43.5,51.5 Z"/></g>
<g><path style="opacity:1" fill="#6b6ff1" d="M 14.5,56.5 C 16.337,56.6395 16.6704,57.3061 15.5,58.5C 14.7025,58.0431 14.3691,57.3764 14.5,56.5 Z"/></g>
<g><path style="opacity:1" fill="#6e71f1" d="M 43.5,56.5 C 45.8333,56.5 48.1667,56.5 50.5,56.5C 50.5,58.8333 50.5,61.1667 50.5,63.5C 47.4281,63.8174 44.4281,63.4841 41.5,62.5C 43.7427,61.5258 46.076,61.1924 48.5,61.5C 48.5,60.5 48.5,59.5 48.5,58.5C 46.2188,58.9227 44.5521,58.256 43.5,56.5 Z"/></g>
<g><path style="opacity:1" fill="#6b6ff1" d="M 53.5,56.5 C 56.5,56.5 59.5,56.5 62.5,56.5C 62.8076,58.924 62.4742,61.2573 61.5,63.5C 60.5481,61.9547 60.2148,60.288 60.5,58.5C 57.6122,59.0102 55.2789,58.3435 53.5,56.5 Z"/></g>
<g><path style="opacity:1" fill="#797af2" d="M 64.5,64.5 C 65.7562,64.4614 66.7562,64.9614 67.5,66C 65.1667,68.3333 62.8333,70.6667 60.5,73C 57.8333,73.6667 55.1667,73.6667 52.5,73C 49.9684,70.5854 46.9684,69.9187 43.5,71C 41.0232,75.3291 37.3566,77.1624 32.5,76.5C 32.5,75.5 32.5,74.5 32.5,73.5C 37.3566,74.1624 41.0232,72.3291 43.5,68C 47.8995,66.6638 51.5662,67.6638 54.5,71C 58.9124,70.7973 62.2457,68.6306 64.5,64.5 Z"/></g>
<g><path style="opacity:1" fill="#e6e3fc" d="M 21.5,73.5 C 23.1667,73.5 24.8333,73.5 26.5,73.5C 26.5,75.5 26.5,77.5 26.5,79.5C 24.8333,79.5 23.1667,79.5 21.5,79.5C 21.5,77.5 21.5,75.5 21.5,73.5 Z"/></g>
</svg>
