<?xml version="1.0" encoding="UTF-8"?>
<!DOCTYPE svg PUBLIC "-//W3C//DTD SVG 1.1//EN" "http://www.w3.org/Graphics/SVG/1.1/DTD/svg11.dtd">
<svg xmlns="http://www.w3.org/2000/svg" version="1.1" width="105px" height="115px" style="shape-rendering:geometricPrecision; text-rendering:geometricPrecision; image-rendering:optimizeQuality; fill-rule:evenodd; clip-rule:evenodd" xmlns:xlink="http://www.w3.org/1999/xlink">
<g><path style="opacity:1" fill="#fdfdfe" d="M -0.5,-0.5 C 34.5,-0.5 69.5,-0.5 104.5,-0.5C 104.5,37.8333 104.5,76.1667 104.5,114.5C 69.5,114.5 34.5,114.5 -0.5,114.5C -0.5,76.1667 -0.5,37.8333 -0.5,-0.5 Z"/></g>
<g><path style="opacity:1" fill="#797bf2" d="M 48.5,8.5 C 53.6039,7.61183 56.9372,9.61183 58.5,14.5C 55.2129,18.7596 52.8796,23.4263 51.5,28.5C 50.1204,23.4263 47.7871,18.7596 44.5,14.5C 45.4316,12.2345 46.7649,10.2345 48.5,8.5 Z"/></g>
<g><path style="opacity:1" fill="#f1f1fd" d="M 49.5,11.5 C 54.3276,11.3852 55.6609,13.5519 53.5,18C 48.5705,18.427 47.2372,16.2604 49.5,11.5 Z"/></g>
<g><path style="opacity:1" fill="#8283f3" d="M 36.5,14.5 C 39.9571,14.6672 40.2904,15.6672 37.5,17.5C 36.6143,16.675 36.281,15.675 36.5,14.5 Z"/></g>
<g><path style="opacity:1" fill="#8384f3" d="M 63.5,14.5 C 64.5,14.5 65.5,14.5 66.5,14.5C 65.7542,18.31 64.7542,18.31 63.5,14.5 Z"/></g>
<g><path style="opacity:1" fill="#7477f1" d="M 30.5,16.5 C 32.6246,17.3676 32.7913,18.3676 31,19.5C 29.3167,18.8235 29.1501,17.8235 30.5,16.5 Z"/></g>
<g><path style="opacity:1" fill="#7275f1" d="M 71.5,16.5 C 73.6246,17.3676 73.7913,18.3676 72,19.5C 70.3167,18.8235 70.1501,17.8235 71.5,16.5 Z"/></g>
<g><path style="opacity:1" fill="#7678f2" d="M 15.5,18.5 C 22.8043,18.39 25.9709,22.0567 25,29.5C 27.0176,31.3501 28.8509,33.3501 30.5,35.5C 29.9653,37.1013 28.9653,37.6013 27.5,37C 25.8333,35.3333 24.1667,33.6667 22.5,32C 16.2838,32.9118 12.6171,30.4118 11.5,24.5C 12.4316,22.2345 13.7649,20.2345 15.5,18.5 Z"/></g>
<g><path style="opacity:1" fill="#7477f1" d="M 81.5,18.5 C 89.5935,18.4036 92.4269,22.0702 90,29.5C 87.0696,31.0663 83.9029,31.8996 80.5,32C 78.6499,34.0176 76.6499,35.8509 74.5,37.5C 73.5,37.1667 72.8333,36.5 72.5,35.5C 74.1491,33.3501 75.9824,31.3501 78,29.5C 77.9362,25.3624 79.1028,21.6957 81.5,18.5 Z"/></g>
<g><path style="opacity:1" fill="#ededfd" d="M 16.5,21.5 C 21.3276,21.3852 22.6609,23.5519 20.5,28C 14.7377,28.4178 13.4044,26.2511 16.5,21.5 Z"/></g>
<g><path style="opacity:1" fill="#ededfd" d="M 82.5,21.5 C 88.0159,21.4734 89.3492,23.64 86.5,28C 81.5705,28.427 80.2372,26.2604 82.5,21.5 Z"/></g>
<g><path style="opacity:1" fill="#7577f1" d="M 50.5,31.5 C 66.8592,33.0282 76.1925,41.8615 78.5,58C 76.7499,74.2503 67.7499,83.417 51.5,85.5C 30.9315,82.0253 22.4315,70.0253 26,49.5C 30.8146,38.6987 38.9813,32.6987 50.5,31.5 Z"/></g>
<g><path style="opacity:1" fill="#7174f1" d="M 10.5,36.5 C 12.4646,36.9483 12.7979,37.9483 11.5,39.5C 9.4807,38.8671 9.14737,37.8671 10.5,36.5 Z"/></g>
<g><path style="opacity:1" fill="#f0f0fd" d="M 50.5,35.5 C 61.7207,42.5913 60.3874,45.0913 46.5,43C 45.5494,42.2825 45.3828,41.4491 46,40.5C 47.7073,38.9625 49.2073,37.2959 50.5,35.5 Z"/></g>
<g><path style="opacity:1" fill="#7174f1" d="M 90.5,36.5 C 93.6741,36.9522 94.0075,37.9522 91.5,39.5C 90.6143,38.675 90.281,37.675 90.5,36.5 Z"/></g>
<g><path style="opacity:1" fill="#f7f7fe" d="M 44.5,35.5 C 45.2389,35.369 45.9056,35.5357 46.5,36C 44.4537,38.9027 41.787,40.736 38.5,41.5C 38.4208,42.9305 38.7542,44.2638 39.5,45.5C 37.7392,49.3025 36.7392,53.3025 36.5,57.5C 34.712,57.2148 33.0453,57.5481 31.5,58.5C 32.6685,60.2174 34.3352,60.8841 36.5,60.5C 37.0298,64.2849 38.0298,67.9515 39.5,71.5C 36.7235,74.9216 34.2235,74.9216 32,71.5C 24.5725,55.3735 28.7392,43.3735 44.5,35.5 Z"/></g>
<g><path style="opacity:1" fill="#eeeefd" d="M 58.5,36.5 C 61.5976,37.2159 64.2643,38.7159 66.5,41C 65.3914,41.6377 64.2247,42.1377 63,42.5C 60.899,40.906 59.399,38.906 58.5,36.5 Z"/></g>
<g><path style="opacity:1" fill="#8283f3" d="M 7.5,43.5 C 10.9571,43.6672 11.2904,44.6672 8.5,46.5C 7.61432,45.675 7.28099,44.675 7.5,43.5 Z"/></g>
<g><path style="opacity:1" fill="#8485f3" d="M 92.5,43.5 C 93.5,43.5 94.5,43.5 95.5,43.5C 94.7542,47.31 93.7542,47.31 92.5,43.5 Z"/></g>
<g><path style="opacity:1" fill="#f8f8fe" d="M 64.5,44.5 C 66.7925,44.2436 68.9592,44.5769 71,45.5C 73.3317,48.8219 74.4984,52.4885 74.5,56.5C 71.8333,56.5 69.1667,56.5 66.5,56.5C 65.5145,52.5568 64.8478,48.5568 64.5,44.5 Z"/></g>
<g><path style="opacity:1" fill="#fcfbfe" d="M 62.5,53.5 C 62.5,54.5 62.5,55.5 62.5,56.5C 55.1667,56.5 47.8333,56.5 40.5,56.5C 40.5,55.5 40.5,54.5 40.5,53.5C 40.315,50.2065 41.4817,47.5398 44,45.5C 49.462,46.2645 54.962,46.7645 60.5,47C 62.0163,48.897 62.683,51.0637 62.5,53.5 Z"/></g>
<g><path style="opacity:1" fill="#797bf2" d="M 5.5,51.5 C 9.50325,51.0052 12.5032,52.5052 14.5,56C 15.8333,56.3333 17.1667,56.6667 18.5,57C 19.4506,57.7175 19.6172,58.5509 19,59.5C 15.3882,60.546 12.2215,62.3793 9.5,65C 3.36551,64.8543 0.865505,61.6877 2,55.5C 3.37561,54.2949 4.54227,52.9616 5.5,51.5 Z"/></g>
<g><path style="opacity:1" fill="#7a7bf2" d="M 88.5,60.5 C 86.6309,59.8354 84.6309,59.1687 82.5,58.5C 84.6309,57.8313 86.6309,57.1646 88.5,56.5C 92.1574,50.3377 96.3241,50.0044 101,55.5C 102.333,60.8339 100.333,64.1672 95,65.5C 91.9806,64.9106 89.8139,63.2439 88.5,60.5 Z"/></g>
<g><path style="opacity:1" fill="#f1f1fd" d="M 5.5,55.5 C 10.1225,54.4082 11.9558,56.0748 11,60.5C 5.80065,62.3317 3.96731,60.665 5.5,55.5 Z"/></g>
<g><path style="opacity:1" fill="#f6f5fe" d="M 92.5,55.5 C 97.1585,55.0146 98.4919,56.848 96.5,61C 91.7282,61.8104 90.3948,59.9771 92.5,55.5 Z"/></g>
<g><path style="opacity:1" fill="#afb1f7" d="M 40.5,53.5 C 40.5,54.5 40.5,55.5 40.5,56.5C 47.8333,56.5 55.1667,56.5 62.5,56.5C 62.5,55.5 62.5,54.5 62.5,53.5C 63.4345,54.5676 63.7678,55.901 63.5,57.5C 55.5,57.5 47.5,57.5 39.5,57.5C 39.2322,55.901 39.5655,54.5676 40.5,53.5 Z"/></g>
<g><path style="opacity:1" fill="#9fa1f6" d="M 88.5,56.5 C 86.6309,57.1646 84.6309,57.8313 82.5,58.5C 84.6309,59.1687 86.6309,59.8354 88.5,60.5C 86.1667,60.5 83.8333,60.5 81.5,60.5C 81.5,59.1667 81.5,57.8333 81.5,56.5C 83.8333,56.5 86.1667,56.5 88.5,56.5 Z"/></g>
<g><path style="opacity:1" fill="#8b8df4" d="M 62.5,64.5 C 62.5,63.1667 62.5,61.8333 62.5,60.5C 55.1667,60.5 47.8333,60.5 40.5,60.5C 40.5,61.8333 40.5,63.1667 40.5,64.5C 39.5489,63.0813 39.2155,61.4147 39.5,59.5C 47.5,59.5 55.5,59.5 63.5,59.5C 63.7845,61.4147 63.4511,63.0813 62.5,64.5 Z"/></g>
<g><path style="opacity:1" fill="#fcfcfe" d="M 62.5,64.5 C 61.9111,66.3519 61.2444,68.1852 60.5,70C 55.3095,70.2966 50.1428,70.7966 45,71.5C 42.1422,70.1634 40.6422,67.83 40.5,64.5C 40.5,63.1667 40.5,61.8333 40.5,60.5C 47.8333,60.5 55.1667,60.5 62.5,60.5C 62.5,61.8333 62.5,63.1667 62.5,64.5 Z"/></g>
<g><path style="opacity:1" fill="#f8f8fe" d="M 66.5,60.5 C 69.1667,60.5 71.8333,60.5 74.5,60.5C 74.3731,65.7509 72.3731,70.0842 68.5,73.5C 66.2143,73.04 64.881,71.7067 64.5,69.5C 65.3284,66.5212 65.9951,63.5212 66.5,60.5 Z"/></g>
<g><path style="opacity:1" fill="#8384f3" d="M 7.5,70.5 C 11.31,71.7542 11.31,72.7542 7.5,73.5C 7.5,72.5 7.5,71.5 7.5,70.5 Z"/></g>
<g><path style="opacity:1" fill="#8585f3" d="M 93.5,70.5 C 95.0481,70.8212 95.7148,71.8212 95.5,73.5C 92.7524,73.5983 92.0857,72.5983 93.5,70.5 Z"/></g>
<g><path style="opacity:1" fill="#f0f0fd" d="M 47.5,73.5 C 60.0732,71.916 61.4066,74.5827 51.5,81.5C 49.5171,80.018 47.6837,78.3513 46,76.5C 45.7613,75.212 46.2613,74.212 47.5,73.5 Z"/></g>
<g><path style="opacity:1" fill="#ebebfd" d="M 39.5,75.5 C 42.5618,76.1867 43.8951,77.8534 43.5,80.5C 41.3359,79.5857 39.3359,78.419 37.5,77C 38.4158,76.7216 39.0825,76.2216 39.5,75.5 Z"/></g>
<g><path style="opacity:1" fill="#ebeafd" d="M 61.5,74.5 C 63.3084,74.4914 64.9751,74.9914 66.5,76C 64.2127,78.6587 61.546,79.8254 58.5,79.5C 59.9524,78.0603 60.9524,76.3936 61.5,74.5 Z"/></g>
<g><path style="opacity:1" fill="#7174f1" d="M 10.5,77.5 C 12.4646,77.9483 12.7979,78.9483 11.5,80.5C 9.4807,79.8671 9.14737,78.8671 10.5,77.5 Z"/></g>
<g><path style="opacity:1" fill="#7174f1" d="M 90.5,77.5 C 93.6741,77.9522 94.0075,78.9522 91.5,80.5C 90.6143,79.675 90.281,78.675 90.5,77.5 Z"/></g>
<g><path style="opacity:1" fill="#7779f2" d="M 27.5,79.5 C 28.9953,79.4148 29.9953,80.0815 30.5,81.5C 28.8509,83.6499 27.0176,85.6499 25,87.5C 25.9908,95.1089 22.8241,98.6089 15.5,98C 10.7993,94.2189 10.466,90.2189 14.5,86C 20.4536,86.9015 24.7869,84.7348 27.5,79.5 Z"/></g>
<g><path style="opacity:1" fill="#7577f2" d="M 73.5,80.5 C 76.4389,80.918 78.7722,82.418 80.5,85C 84.4886,84.8928 87.9886,86.0595 91,88.5C 91.8824,95.6177 88.7158,98.7844 81.5,98C 79.0595,94.9886 77.8928,91.4886 78,87.5C 75.418,85.7722 73.918,83.4389 73.5,80.5 Z"/></g>
<g><path style="opacity:1" fill="#eeeefd" d="M 16.5,88.5 C 20.6772,87.8416 22.1772,89.5082 21,93.5C 18.2143,96.2637 16.0477,95.7637 14.5,92C 14.9783,90.6974 15.645,89.5307 16.5,88.5 Z"/></g>
<g><path style="opacity:1" fill="#7c7df2" d="M 49.5,88.5 C 50.8333,88.5 52.1667,88.5 53.5,88.5C 52.5218,93.2703 54.0218,96.9369 58,99.5C 58.3416,106.156 55.1749,108.989 48.5,108C 43.1077,103.623 43.2744,99.4564 49,95.5C 49.4966,93.1902 49.6633,90.8568 49.5,88.5 Z"/></g>
<g><path style="opacity:1" fill="#f0f0fd" d="M 82.5,88.5 C 87.3276,88.3852 88.6609,90.5519 86.5,95C 81.7954,95.1057 80.4621,92.939 82.5,88.5 Z"/></g>
<g><path style="opacity:1" fill="#7275f1" d="M 29.5,97.5 C 32.5476,97.494 33.0476,98.494 31,100.5C 29.9614,99.7562 29.4614,98.7562 29.5,97.5 Z"/></g>
<g><path style="opacity:1" fill="#7275f1" d="M 70.5,97.5 C 73.5476,97.494 74.0476,98.494 72,100.5C 70.9614,99.7562 70.4614,98.7562 70.5,97.5 Z"/></g>
<g><path style="opacity:1" fill="#f0f0fd" d="M 49.5,98.5 C 54.2411,98.1614 55.5744,100.161 53.5,104.5C 51.9579,105.747 50.4579,105.747 49,104.5C 48.3224,102.402 48.4891,100.402 49.5,98.5 Z"/></g>
<g><path style="opacity:1" fill="#8585f3" d="M 36.5,99.5 C 40.31,100.754 40.31,101.754 36.5,102.5C 36.5,101.5 36.5,100.5 36.5,99.5 Z"/></g>
<g><path style="opacity:1" fill="#8686f3" d="M 64.5,99.5 C 66.0481,99.8212 66.7148,100.821 66.5,102.5C 63.7524,102.598 63.0857,101.598 64.5,99.5 Z"/></g>
</svg>
