<?xml version="1.0" encoding="UTF-8"?>
<!DOCTYPE svg PUBLIC "-//W3C//DTD SVG 1.1//EN" "http://www.w3.org/Graphics/SVG/1.1/DTD/svg11.dtd">
<svg xmlns="http://www.w3.org/2000/svg" version="1.1" width="88px" height="88px" style="shape-rendering:geometricPrecision; text-rendering:geometricPrecision; image-rendering:optimizeQuality; fill-rule:evenodd; clip-rule:evenodd" xmlns:xlink="http://www.w3.org/1999/xlink">
<g><path style="opacity:1" fill="#fefefe" d="M -0.5,-0.5 C 28.8333,-0.5 58.1667,-0.5 87.5,-0.5C 87.5,28.8333 87.5,58.1667 87.5,87.5C 80.5,87.5 73.5,87.5 66.5,87.5C 66.5,86.5 66.5,85.5 66.5,84.5C 59.8333,84.5 53.1667,84.5 46.5,84.5C 46.5,80.5 46.5,76.5 46.5,72.5C 58.1714,72.6665 69.8381,72.4999 81.5,72C 82.5786,71.044 83.7453,70.2106 85,69.5C 86.6437,48.2556 86.977,26.9222 86,5.5C 84.8333,4.33333 83.6667,3.16667 82.5,2C 57.1667,1.33333 31.8333,1.33333 6.5,2C 5.33333,3.16667 4.16667,4.33333 3,5.5C 2.02297,26.9222 2.3563,48.2556 4,69.5C 5.25471,70.2106 6.42138,71.044 7.5,72C 19.1619,72.4999 30.8286,72.6665 42.5,72.5C 42.5,76.5 42.5,80.5 42.5,84.5C 35.8333,84.5 29.1667,84.5 22.5,84.5C 22.5,85.5 22.5,86.5 22.5,87.5C 14.8333,87.5 7.16667,87.5 -0.5,87.5C -0.5,58.1667 -0.5,28.8333 -0.5,-0.5 Z"/></g>
<g><path style="opacity:1" fill="#f09011" d="M 66.5,87.5 C 51.8333,87.5 37.1667,87.5 22.5,87.5C 22.5,86.5 22.5,85.5 22.5,84.5C 29.1667,84.5 35.8333,84.5 42.5,84.5C 42.5,80.5 42.5,76.5 42.5,72.5C 30.8286,72.6665 19.1619,72.4999 7.5,72C 6.42138,71.044 5.25471,70.2106 4,69.5C 2.3563,48.2556 2.02297,26.9222 3,5.5C 4.16667,4.33333 5.33333,3.16667 6.5,2C 31.8333,1.33333 57.1667,1.33333 82.5,2C 83.6667,3.16667 84.8333,4.33333 86,5.5C 86.977,26.9222 86.6437,48.2556 85,69.5C 83.7453,70.2106 82.5786,71.044 81.5,72C 69.8381,72.4999 58.1714,72.6665 46.5,72.5C 46.5,76.5 46.5,80.5 46.5,84.5C 53.1667,84.5 59.8333,84.5 66.5,84.5C 66.5,85.5 66.5,86.5 66.5,87.5 Z"/></g>
<g><path style="opacity:1" fill="#fefefd" d="M 75.5,16.5 C 77.6074,17.4682 79.9407,17.8016 82.5,17.5C 82.5,30.1667 82.5,42.8333 82.5,55.5C 63.1667,55.5 43.8333,55.5 24.5,55.5C 24.5,56.5 24.5,57.5 24.5,58.5C 43.6595,59.497 62.9928,59.8303 82.5,59.5C 82.5,61.5 82.5,63.5 82.5,65.5C 82.0472,66.4584 81.3805,67.2917 80.5,68C 56.5,68.6667 32.5,68.6667 8.5,68C 6.68631,65.5185 6.01964,62.6852 6.5,59.5C 9.5,59.5 12.5,59.5 15.5,59.5C 15.5,58.1667 15.5,56.8333 15.5,55.5C 12.5,55.5 9.5,55.5 6.5,55.5C 6.5,42.8333 6.5,30.1667 6.5,17.5C 26.0072,17.8303 45.3405,17.497 64.5,16.5C 65.404,15.791 65.7373,14.791 65.5,13.5C 45.8333,13.5 26.1667,13.5 6.5,13.5C 6.05484,10.6354 6.7215,8.13544 8.5,6C 32.5,5.33333 56.5,5.33333 80.5,6C 82.2785,8.13544 82.9452,10.6354 82.5,13.5C 79.8333,13.5 77.1667,13.5 74.5,13.5C 74.2627,14.791 74.596,15.791 75.5,16.5 Z"/></g>
<g><path style="opacity:1" fill="#f4aa41" d="M 64.5,16.5 C 45.3405,17.497 26.0072,17.8303 6.5,17.5C 6.5,30.1667 6.5,42.8333 6.5,55.5C 5.50452,42.6774 5.17119,29.6774 5.5,16.5C 25.1667,16.5 44.8333,16.5 64.5,16.5 Z"/></g>
<g><path style="opacity:1" fill="#f3aa40" d="M 75.5,16.5 C 78.1667,16.5 80.8333,16.5 83.5,16.5C 83.8288,29.6774 83.4955,42.6774 82.5,55.5C 82.5,42.8333 82.5,30.1667 82.5,17.5C 79.9407,17.8016 77.6074,17.4682 75.5,16.5 Z"/></g>
<g><path style="opacity:1" fill="#f4aa42" d="M 24.5,58.5 C 44.1667,58.5 63.8333,58.5 83.5,58.5C 83.8016,61.0593 83.4682,63.3926 82.5,65.5C 82.5,63.5 82.5,61.5 82.5,59.5C 62.9928,59.8303 43.6595,59.497 24.5,58.5 Z"/></g>
<g><path style="opacity:1" fill="#f29928" d="M 62.5,61.5 C 66.8461,61.3343 71.1794,61.501 75.5,62C 76.8333,63 76.8333,64 75.5,65C 71.1667,65.6667 66.8333,65.6667 62.5,65C 61.3157,63.8545 61.3157,62.6879 62.5,61.5 Z"/></g>
</svg>
