<?xml version="1.0" encoding="UTF-8"?>
<!DOCTYPE svg PUBLIC "-//W3C//DTD SVG 1.1//EN" "http://www.w3.org/Graphics/SVG/1.1/DTD/svg11.dtd">
<svg xmlns="http://www.w3.org/2000/svg" version="1.1" width="82px" height="90px" style="shape-rendering:geometricPrecision; text-rendering:geometricPrecision; image-rendering:optimizeQuality; fill-rule:evenodd; clip-rule:evenodd" xmlns:xlink="http://www.w3.org/1999/xlink">
<g><path style="opacity:1" fill="#fffefd" d="M -0.5,-0.5 C 26.8333,-0.5 54.1667,-0.5 81.5,-0.5C 81.5,29.5 81.5,59.5 81.5,89.5C 54.1667,89.5 26.8333,89.5 -0.5,89.5C -0.5,59.5 -0.5,29.5 -0.5,-0.5 Z"/></g>
<g><path style="opacity:1" fill="#f2992a" d="M 39.5,0.5 C 43.6213,3.40879 47.6213,6.57546 51.5,10C 54.8333,11 58.1667,12 61.5,13C 63.886,14.8873 65.0527,17.3873 65,20.5C 69.6667,24.5 74.3333,28.5 79,32.5C 79.6667,49.1667 79.6667,65.8333 79,82.5C 78.2155,84.286 77.0488,85.786 75.5,87C 52.5,87.6667 29.5,87.6667 6.5,87C 4.95118,85.786 3.78451,84.286 3,82.5C 2.33333,65.5 2.33333,48.5 3,31.5C 7.66667,27.5 12.3333,23.5 17,19.5C 18.0605,13.7815 21.5605,10.9481 27.5,11C 31.6932,7.63486 35.6932,4.13486 39.5,0.5 Z"/></g>
<g><path style="opacity:1" fill="#fefaf5" d="M 39.5,3.5 C 42.3347,6.16528 45.3347,8.66528 48.5,11C 42.8333,11.6667 37.1667,11.6667 31.5,11C 34.6657,8.99994 37.3324,6.49994 39.5,3.5 Z"/></g>
<g><path style="opacity:1" fill="#fffbf8" d="M 22.5,14.5 C 35.1842,14.1676 47.8508,14.5009 60.5,15.5C 61.6406,25.1191 61.8073,34.7857 61,44.5C 57.3683,47.1298 54.035,50.1298 51,53.5C 50.2506,54.635 50.4173,55.635 51.5,56.5C 59.1584,50.1742 66.4917,43.5075 73.5,36.5C 73.1924,35.6919 72.6924,35.0253 72,34.5C 69.961,36.8745 67.6277,38.8745 65,40.5C 64.3333,35.1667 64.3333,29.8333 65,24.5C 68.6667,27.5 72.3333,30.5 76,33.5C 76.6667,49.8333 76.6667,66.1667 76,82.5C 75.5,83 75,83.5 74.5,84C 52.1667,84.6667 29.8333,84.6667 7.5,84C 7,83.5 6.5,83 6,82.5C 5.33333,65.8333 5.33333,49.1667 6,32.5C 9.59312,29.6184 13.0931,26.6184 16.5,23.5C 17.6632,29.1375 17.8299,34.8041 17,40.5C 15.0748,39.1196 13.2415,37.6196 11.5,36C 10.365,35.2506 9.36495,35.4173 8.5,36.5C 15.3235,43.1556 22.3235,49.6556 29.5,56C 30.4835,56.5908 31.1501,56.2575 31.5,55C 28.6791,50.8457 25.1791,47.3457 21,44.5C 20.3333,35.1667 20.3333,25.8333 21,16.5C 21.7172,15.9558 22.2172,15.2891 22.5,14.5 Z"/></g>
<g><path style="opacity:1" fill="#f19723" d="M 26.5,22.5 C 33.175,22.3337 39.8417,22.5004 46.5,23C 46.9574,23.414 47.2907,23.914 47.5,24.5C 40.1667,25.8333 32.8333,25.8333 25.5,24.5C 25.8627,23.8165 26.1961,23.1499 26.5,22.5 Z"/></g>
<g><path style="opacity:1" fill="#ef8d01" d="M 51.5,23.5 C 53.288,23.2148 54.9547,23.5481 56.5,24.5C 55.6667,24.8333 54.8333,25.1667 54,25.5C 52.6244,25.3158 51.7911,24.6491 51.5,23.5 Z"/></g>
<g><path style="opacity:1" fill="#f2992a" d="M 25.5,32.5 C 27.1667,32.5 28.8333,32.5 30.5,32.5C 30.5,33.5 30.5,34.5 30.5,35.5C 27.715,36.0838 26.0483,35.0838 25.5,32.5 Z"/></g>
<g><path style="opacity:1" fill="#f29725" d="M 34.5,32.5 C 41.8333,32.5 49.1667,32.5 56.5,32.5C 56.5,33.5 56.5,34.5 56.5,35.5C 49.4921,35.6663 42.4921,35.4996 35.5,35C 34.7476,34.3292 34.4142,33.4959 34.5,32.5 Z"/></g>
<g><path style="opacity:1" fill="#f1941c" d="M 25.5,41.5 C 30.3614,41.0634 35.0281,41.5634 39.5,43C 35.0281,44.4366 30.3614,44.9366 25.5,44.5C 25.5,43.5 25.5,42.5 25.5,41.5 Z"/></g>
<g><path style="opacity:1" fill="#f1941c" d="M 43.5,41.5 C 48.3614,41.0634 53.0281,41.5634 57.5,43C 53.3537,44.5951 49.0204,44.9284 44.5,44C 43.7476,43.3292 43.4142,42.4959 43.5,41.5 Z"/></g>
<g><path style="opacity:1" fill="#f29929" d="M 39.5,53.5 C 41.3084,53.4914 42.9751,53.9914 44.5,55C 46.3501,57.0176 48.3501,58.8509 50.5,60.5C 49.9653,62.1013 48.9653,62.6013 47.5,62C 45.6266,59.7911 43.46,57.9578 41,56.5C 30.8748,64.2897 21.0415,72.4564 11.5,81C 10.365,81.7494 9.36495,81.5827 8.5,80.5C 18.5572,71.1044 28.8905,62.1044 39.5,53.5 Z"/></g>
<g><path style="opacity:1" fill="#f29929" d="M 54.5,65.5 C 55.552,65.3505 56.552,65.5172 57.5,66C 63.0086,70.677 68.3419,75.5103 73.5,80.5C 72.635,81.5827 71.635,81.7494 70.5,81C 65.3333,76.5 60.1667,72 55,67.5C 54.5357,66.9056 54.369,66.2389 54.5,65.5 Z"/></g>
</svg>
