<?xml version="1.0" encoding="UTF-8"?>
<!DOCTYPE svg PUBLIC "-//W3C//DTD SVG 1.1//EN" "http://www.w3.org/Graphics/SVG/1.1/DTD/svg11.dtd">
<svg xmlns="http://www.w3.org/2000/svg" version="1.1" width="87px" height="88px" style="shape-rendering:geometricPrecision; text-rendering:geometricPrecision; image-rendering:optimizeQuality; fill-rule:evenodd; clip-rule:evenodd" xmlns:xlink="http://www.w3.org/1999/xlink">
<g><path style="opacity:1" fill="#fffefd" d="M -0.5,-0.5 C 14.8333,-0.5 30.1667,-0.5 45.5,-0.5C 43.0987,0.539241 40.7654,1.87257 38.5,3.5C 37.2888,4.2739 37.2888,5.10723 38.5,6C 41.7446,4.50993 45.2446,3.34326 49,2.5C 57.8512,3.35114 62.6845,8.18448 63.5,17C 63.4054,26.2611 58.7387,31.0945 49.5,31.5C 37.9788,29.6269 33.6455,22.9602 36.5,11.5C 35.7112,9.51208 34.5445,9.17875 33,10.5C 32.0943,12.7438 31.5943,15.0772 31.5,17.5C 32.4105,21.7155 33.5771,25.7155 35,29.5C 32.3557,31.31 29.8557,33.31 27.5,35.5C 18.5336,30.522 10.7003,31.8553 4,39.5C -0.943849,49.9181 1.22282,58.4181 10.5,65C 12.7438,65.9057 15.0772,66.4057 17.5,66.5C 21.6077,65.7306 25.6077,64.8973 29.5,64C 30.8333,65.3333 32.1667,66.6667 33.5,68C 29.5129,76.0208 31.5129,82.0208 39.5,86C 50.8272,87.0044 55.6606,81.8377 54,70.5C 53.586,70.0426 53.086,69.7093 52.5,69.5C 52.3879,74.3635 50.7212,78.5302 47.5,82C 38.5675,84.4108 34.4008,80.9108 35,71.5C 37.9781,67.012 42.1448,65.3453 47.5,66.5C 47.5,65.5 47.5,64.5 47.5,63.5C 43.4161,63.0431 39.5828,63.7098 36,65.5C 34.6667,64.1667 33.3333,62.8333 32,61.5C 33.1053,57.3127 33.9386,52.9793 34.5,48.5C 34.6381,44.7887 33.6381,41.4554 31.5,38.5C 33.0662,35.4249 35.2329,32.7583 38,30.5C 44.7396,36.3019 51.9063,36.8019 59.5,32C 69.7141,22.7192 70.0475,13.0526 60.5,3C 58.0748,1.78739 55.7415,0.620727 53.5,-0.5C 64.5,-0.5 75.5,-0.5 86.5,-0.5C 86.5,28.8333 86.5,58.1667 86.5,87.5C 57.5,87.5 28.5,87.5 -0.5,87.5C -0.5,58.1667 -0.5,28.8333 -0.5,-0.5 Z"/></g>
<g><path style="opacity:1" fill="#f29724" d="M 45.5,-0.5 C 48.1667,-0.5 50.8333,-0.5 53.5,-0.5C 55.7415,0.620727 58.0748,1.78739 60.5,3C 70.0475,13.0526 69.7141,22.7192 59.5,32C 51.9063,36.8019 44.7396,36.3019 38,30.5C 35.2329,32.7583 33.0662,35.4249 31.5,38.5C 33.6381,41.4554 34.6381,44.7887 34.5,48.5C 33.9386,52.9793 33.1053,57.3127 32,61.5C 33.3333,62.8333 34.6667,64.1667 36,65.5C 39.5828,63.7098 43.4161,63.0431 47.5,63.5C 47.5,64.5 47.5,65.5 47.5,66.5C 42.1448,65.3453 37.9781,67.012 35,71.5C 34.4008,80.9108 38.5675,84.4108 47.5,82C 50.7212,78.5302 52.3879,74.3635 52.5,69.5C 53.086,69.7093 53.586,70.0426 54,70.5C 55.6606,81.8377 50.8272,87.0044 39.5,86C 31.5129,82.0208 29.5129,76.0208 33.5,68C 32.1667,66.6667 30.8333,65.3333 29.5,64C 25.6077,64.8973 21.6077,65.7306 17.5,66.5C 15.0772,66.4057 12.7438,65.9057 10.5,65C 1.22282,58.4181 -0.943849,49.9181 4,39.5C 10.7003,31.8553 18.5336,30.522 27.5,35.5C 29.8557,33.31 32.3557,31.31 35,29.5C 33.5771,25.7155 32.4105,21.7155 31.5,17.5C 31.5943,15.0772 32.0943,12.7438 33,10.5C 34.5445,9.17875 35.7112,9.51208 36.5,11.5C 33.6455,22.9602 37.9788,29.6269 49.5,31.5C 58.7387,31.0945 63.4054,26.2611 63.5,17C 62.6845,8.18448 57.8512,3.35114 49,2.5C 45.2446,3.34326 41.7446,4.50993 38.5,6C 37.2888,5.10723 37.2888,4.2739 38.5,3.5C 40.7654,1.87257 43.0987,0.539241 45.5,-0.5 Z"/></g>
<g><path style="opacity:1" fill="#fefdfb" d="M 12.5,36.5 C 28.4243,35.5736 33.9243,42.5736 29,57.5C 24.4256,62.15 18.9256,63.65 12.5,62C 4.25727,56.9069 2.42394,50.0735 7,41.5C 8.72969,39.5981 10.563,37.9314 12.5,36.5 Z"/></g>
</svg>
